<?xml version="1.0" encoding="UTF-8"?>
<svg width="205px" height="205px" viewBox="0 0 205 205" version="1.1" xmlns="http://www.w3.org/2000/svg" xmlns:xlink="http://www.w3.org/1999/xlink">
    <title>Group</title>
    <defs>
        <linearGradient x1="50%" y1="0%" x2="50%" y2="100%" id="linearGradient-1">
            <stop stop-color="#7127F9" offset="0%"></stop>
            <stop stop-color="#A340CD" offset="100%"></stop>
        </linearGradient>
        <linearGradient x1="50%" y1="0%" x2="50%" y2="100%" id="linearGradient-2">
            <stop stop-color="#FFFFFF" offset="0%"></stop>
            <stop stop-color="#FFFFFF" offset="100%"></stop>
        </linearGradient>
        <linearGradient x1="50%" y1="0%" x2="50%" y2="100%" id="linearGradient-3">
            <stop stop-color="#7127F9" offset="0%"></stop>
            <stop stop-color="#A340CD" offset="100%"></stop>
        </linearGradient>
        <path d="M102.5,0 C159.109187,0 205,45.8908131 205,102.5 C205,159.109187 159.109187,205 102.5,205 C45.8908131,205 0,159.109187 0,102.5 C0,45.8908131 45.8908131,0 102.5,0 Z M102.5,21.6210938 C57.3895542,21.6210938 20.8203125,58.1903355 20.8203125,103.300781 C20.8203125,148.411227 57.3895542,184.980469 102.5,184.980469 C147.610446,184.980469 184.179688,148.411227 184.179688,103.300781 C184.179688,58.1903355 147.610446,21.6210938 102.5,21.6210938 Z" id="path-4"></path>
        <linearGradient x1="50%" y1="0%" x2="50%" y2="100%" id="linearGradient-5">
            <stop stop-color="#FFFFFF" offset="0%"></stop>
            <stop stop-color="#FFFFFF" offset="100%"></stop>
        </linearGradient>
    </defs>
    <g id="Page-1" stroke="none" stroke-width="1" fill="none" fill-rule="evenodd">
        <g id="orion-logo-brand-gitlab" transform="translate(-26.000000, -26.000000)">
            <g id="Group" transform="translate(26.000000, 26.000000)">
                <path d="M100.668459,80.0197853 C96.1453523,80.0197853 92.4786503,83.6864873 92.4786503,88.2095935 L92.4786503,147.91109 C92.4786503,150.504905 91.9124514,152.269848 90.8796818,153.304631 C89.8055491,154.380858 88.4974941,154.9051 86.8367824,154.9051 C85.1760707,154.9051 83.8680157,154.380858 82.793883,153.304631 C81.7611134,152.269848 81.1949145,150.504905 81.1949145,147.91109 L81.1949145,88.2095935 C81.1949145,83.6864873 77.5282125,80.0197853 73.0051063,80.0197853 C68.4820001,80.0197853 64.815298,83.6864873 64.815298,88.2095935 L64.815298,149.126761 C64.815298,152.235171 65.3962817,155.123364 66.5620084,157.773825 C67.7134602,160.39183 69.3104906,162.725374 71.3454726,164.764323 C73.3806381,166.803457 75.7100743,168.4039 78.3236743,169.557901 C80.9681545,170.725538 83.8118553,171.308848 86.8367824,171.308848 C89.8585536,171.308848 92.7184414,170.7268 95.3992315,169.56286 C98.056874,168.408969 100.410685,166.807037 102.449423,164.764323 C104.490889,162.718877 106.071863,160.376257 107.18353,157.747608 C108.301443,155.104188 108.858267,152.225377 108.858267,149.126761 L108.858267,88.2095935 C108.858267,83.6864873 105.191565,80.0197853 100.668459,80.0197853 Z M129.678579,136.875254 C125.255987,136.875254 121.670767,140.460474 121.670767,144.883067 C121.670767,149.305659 125.255987,152.890879 129.678579,152.890879 C134.101172,152.890879 137.686392,149.305659 137.686392,144.883067 C137.686392,140.460474 134.101172,136.875254 129.678579,136.875254 Z M129.678579,42.3830665 C125.255987,42.3830665 121.670767,45.9682863 121.670767,50.390879 L121.670767,124.863535 C121.670767,129.286128 125.255987,132.871348 129.678579,132.871348 C134.101172,132.871348 137.686392,129.286128 137.686392,124.863535 L137.686392,50.390879 C137.686392,45.9682863 134.101172,42.3830665 129.678579,42.3830665 Z M72.8231105,59.1994728 C68.4005178,59.1994728 64.815298,62.7846926 64.815298,67.2072853 C64.815298,71.629878 68.4005178,75.2150978 72.8231105,75.2150978 C77.2457032,75.2150978 80.830923,71.629878 80.830923,67.2072853 C80.830923,62.7846926 77.2457032,59.1994728 72.8231105,59.1994728 Z" id="Combined-Shape" fill="url(#linearGradient-2)" fill-rule="nonzero" transform="translate(101.250845, 106.845957) rotate(-45.000000) translate(-101.250845, -106.845957) "></path>
                <mask id="mask-6" fill="white">
                    <use xlink:href="#path-4"></use>
                </mask>
                <use id="Combined-Shape" fill="url(#linearGradient-5)" xlink:href="#path-4"></use>
            </g>
        </g>
    </g>
</svg>