<svg viewBox="0 0 30 30" height="30" width="30" xmlns="http://www.w3.org/2000/svg"><g transform="matrix(3,0,0,3,0,0)"><path d="M3.500 5.750 A1.500 1.500 0 1 0 6.500 5.750 A1.500 1.500 0 1 0 3.500 5.750 Z" fill="none" stroke="#000" stroke-linecap="round" stroke-linejoin="round"></path><path d="M9.5,3.75a1,1,0,0,0-1-1H6.75v-1a.5.5,0,0,0-.5-.5H3.75a.5.5,0,0,0-.5.5v1H1.5a1,1,0,0,0-1,1v4a1,1,0,0,0,1,1h7a1,1,0,0,0,1-1Z" fill="none" stroke="#000" stroke-linecap="round" stroke-linejoin="round"></path></g></svg>