<svg viewBox="0 0 30 30" height="30" width="30" xmlns="http://www.w3.org/2000/svg"><g transform="matrix(3,0,0,3,0,0)"><path d="M3.5 2L9.5 2" fill="none" stroke="#000" stroke-linecap="round" stroke-linejoin="round"></path><path d="M3.5 5L9.5 5" fill="none" stroke="#000" stroke-linecap="round" stroke-linejoin="round"></path><path d="M3.5 8L9.5 8" fill="none" stroke="#000" stroke-linecap="round" stroke-linejoin="round"></path><path d="M0.000 2.000 A0.750 0.750 0 1 0 1.500 2.000 A0.750 0.750 0 1 0 0.000 2.000 Z" fill="#000000" stroke="none" stroke-linecap="round" stroke-linejoin="round" stroke-width="0"></path><path d="M0.000 5.000 A0.750 0.750 0 1 0 1.500 5.000 A0.750 0.750 0 1 0 0.000 5.000 Z" fill="#000000" stroke="none" stroke-linecap="round" stroke-linejoin="round" stroke-width="0"></path><path d="M0.000 8.000 A0.750 0.750 0 1 0 1.500 8.000 A0.750 0.750 0 1 0 0.000 8.000 Z" fill="#000000" stroke="none" stroke-linecap="round" stroke-linejoin="round" stroke-width="0"></path></g></svg>