<?xml version="1.0" encoding="UTF-8"?>
<svg width="256px" height="256px" viewBox="0 0 256 256" version="1.1" xmlns="http://www.w3.org/2000/svg" xmlns:xlink="http://www.w3.org/1999/xlink">
    <title>orion-logo-brand</title>
    <defs>
        <linearGradient x1="50%" y1="0%" x2="50%" y2="100%" id="linearGradient-1">
            <stop stop-color="#7127F9" offset="0%"></stop>
            <stop stop-color="#A340CD" offset="100%"></stop>
        </linearGradient>
        <linearGradient x1="50%" y1="0%" x2="50%" y2="100%" id="linearGradient-2">
            <stop stop-color="#7127F9" offset="0%"></stop>
            <stop stop-color="#A340CD" offset="100%"></stop>
        </linearGradient>
        <path d="M128,0 C198.692448,0 256,57.307552 256,128 C256,198.692448 198.692448,256 128,256 C57.307552,256 0,198.692448 0,128 C0,57.307552 57.307552,0 128,0 Z M128,27 C71.6669555,27 26,72.6669555 26,129 C26,185.333044 71.6669555,231 128,231 C184.333044,231 230,185.333044 230,129 C230,72.6669555 184.333044,27 128,27 Z" id="path-3"></path>
    </defs>
    <g id="orion-logo-brand" stroke="none" stroke-width="1" fill="none" fill-rule="evenodd">
        <g id="Group">
            <path d="M125.712807,99.9271465 C120.06444,99.9271465 115.485534,104.506052 115.485534,110.154419 L115.485534,184.708484 C115.485534,187.947589 114.778476,190.151615 113.488773,191.443832 C112.147417,192.787803 110.513944,193.442467 108.440079,193.442467 C106.366215,193.442467 104.732742,192.787803 103.391386,191.443832 C102.101683,190.151615 101.394625,187.947589 101.394625,184.708484 L101.394625,110.154419 C101.394625,104.506052 96.815719,99.9271465 91.1673522,99.9271465 C85.5189854,99.9271465 80.9400795,104.506052 80.9400795,110.154419 L80.9400795,186.226589 C80.9400795,190.108311 81.6656006,193.71503 83.1213374,197.024874 C84.5592478,200.294187 86.5535882,203.208271 89.094834,205.754472 C91.636309,208.300903 94.5452636,210.299504 97.8090763,211.740599 C101.111451,213.19872 104.66261,213.927147 108.440079,213.927147 C112.213608,213.927147 115.78498,213.200297 119.132699,211.746791 C122.451511,210.305834 125.390904,208.305372 127.93684,205.754472 C130.486183,203.200158 132.460473,200.274741 133.848701,196.992135 C135.244729,193.691084 135.940079,190.09608 135.940079,186.226589 L135.940079,110.154419 C135.940079,104.506052 131.361174,99.9271465 125.712807,99.9271465 Z M161.940079,170.927147 C156.417232,170.927147 151.940079,175.404299 151.940079,180.927147 C151.940079,186.449994 156.417232,190.927147 161.940079,190.927147 C167.462927,190.927147 171.940079,186.449994 171.940079,180.927147 C171.940079,175.404299 167.462927,170.927147 161.940079,170.927147 Z M161.940079,52.9271465 C156.417232,52.9271465 151.940079,57.404299 151.940079,62.9271465 L151.940079,155.927147 C151.940079,161.449994 156.417232,165.927147 161.940079,165.927147 C167.462927,165.927147 171.940079,161.449994 171.940079,155.927147 L171.940079,62.9271465 C171.940079,57.404299 167.462927,52.9271465 161.940079,52.9271465 Z M90.9400795,73.9271465 C85.417232,73.9271465 80.9400795,78.404299 80.9400795,83.9271465 C80.9400795,89.449994 85.417232,93.9271465 90.9400795,93.9271465 C96.462927,93.9271465 100.940079,89.449994 100.940079,83.9271465 C100.940079,78.404299 96.462927,73.9271465 90.9400795,73.9271465 Z" id="Combined-Shape" fill="url(#linearGradient-1)" fill-rule="nonzero" transform="translate(126.440079, 133.427147) rotate(-45.000000) translate(-126.440079, -133.427147) "></path>
            <mask id="mask-4" fill="white">
                <use xlink:href="#path-3"></use>
            </mask>
            <use id="Combined-Shape" fill="url(#linearGradient-2)" xlink:href="#path-3"></use>
        </g>
    </g>
</svg>