<?xml version="1.0" encoding="UTF-8"?>
<svg width="130px" height="130px" viewBox="0 0 130 130" version="1.1" xmlns="http://www.w3.org/2000/svg" xmlns:xlink="http://www.w3.org/1999/xlink">
    <title>logo/less</title>
    <defs>
        <linearGradient x1="50%" y1="0%" x2="50%" y2="100%" id="linearGradient-1">
            <stop stop-color="#2E4F82" offset="0%"></stop>
            <stop stop-color="#182E4D" offset="100%"></stop>
        </linearGradient>
        <polyline id="path-2" points="0 0 100 0 100 43 0 43"></polyline>
        <polygon id="path-4" points="0 0 100 0 100 43 0 43"></polygon>
    </defs>
    <g id="Page-1" stroke="none" stroke-width="1" fill="none" fill-rule="evenodd">
        <g id="architecture-design" transform="translate(-77.000000, -623.000000)">
            <g id="logo/less" transform="translate(77.000000, 623.000000)">
                <circle id="Oval-Copy" fill="#DCDFE6" cx="65" cy="65" r="65"></circle>
                <g id="less-63" transform="translate(15.000000, 43.000000)">
                    <g id="a-link" transform="translate(6.314371, 0.102097)" fill="url(#linearGradient-1)" fill-rule="nonzero">
                        <path d="M87.5263734,34.5487471 C87.5263734,39.0896954 83.7411112,42.8048382 79.1146362,42.8048382 L8.41173713,42.8048382 C3.78526217,42.8048382 -1.38810412e-15,39.0896954 -1.38810412e-15,34.5487471 L-1.38810412e-15,8.2560911 C-1.38810412e-15,3.71553551 3.78526217,-8.71924132e-17 8.41173713,-8.71924132e-17 L79.1146362,-8.71924132e-17 C83.7411112,-8.71924132e-17 87.5263734,3.71553551 87.5263734,8.2560911 L87.5263734,34.5487471" id="a"></path>
                    </g>
                    <g id="c-link">
                        <polyline id="c" points="0 0 100 0 100 43 0 43"></polyline>
                    </g>
                    <g id="Clipped">
                        <mask id="mask-3" fill="white">
                            <use xlink:href="#path-2"></use>
                        </mask>
                        <g id="c"></g>
                        <path d="M95.7298586,15.6812719 C95.7298586,12.4624763 96.2225522,10.5642625 96.2225522,7.09807861 C96.2225522,1.73328828 94.251387,0 89.8991951,0 L86.6964914,0 L86.6964914,3.79642753 L87.6818786,3.79642753 C89.8991951,3.79642753 90.3918887,4.53937756 90.3918887,7.26300409 C90.3918887,9.82131246 90.1453466,12.3800135 90.1453466,15.351421 C90.1453466,19.1478485 91.3772759,20.6333559 93.8407439,21.2109877 L93.8407439,21.4587686 C91.3772759,22.0364005 90.1453466,23.5223006 90.1453466,27.3187281 C90.1453466,30.2897428 90.3918887,32.6835184 90.3918887,35.4071449 C90.3918887,38.2132342 89.8171446,38.9557916 87.6818786,38.9557916 L87.6818786,39.0382543 L86.6964914,39.0382543 L86.6964914,43 L89.8991951,43 C94.251387,43 96.2225522,41.2667117 96.2225522,35.9023141 C96.2225522,32.3532748 95.7298586,30.5375237 95.7298586,27.3187281 C95.7298586,25.5854398 96.7972962,23.7696888 100,23.6047633 L100,19.312774 C96.7972962,19.2303112 95.7298586,17.4145602 95.7298586,15.6812719 M59.3502383,20.7158186 C56.8043291,19.7254803 54.5049621,19.1478485 54.5049621,17.4970229 C54.5049621,16.2592965 55.4903493,15.5163464 57.2970227,15.5163464 C59.1036962,15.5163464 60.7462687,16.2592965 62.5529421,17.5798784 L65.8376963,13.2054263 C63.7844807,11.6374562 60.9924201,9.98663063 57.2149723,9.98663063 C51.630851,9.98663063 47.8530124,13.2054263 47.8530124,17.7448038 C47.8530124,21.7890123 51.3843088,23.8521515 54.3408611,25.0078079 C56.8863796,25.9981462 59.3502383,26.823559 59.3502383,28.4739918 C59.3502383,29.712111 58.3644604,30.5375237 56.1475346,30.5375237 C54.094319,30.5375237 52.0414941,29.712111 49.8241775,27.9788227 L46.6214738,32.7659812 C49.0849418,34.8291204 52.8623896,36.232165 55.9830429,36.232165 C62.5529421,36.232165 66.0838478,32.7659812 66.0838478,28.2266036 C66.0838478,23.687226 62.5529421,21.7890123 59.3502383,20.7158186 M79.2232555,20.7158186 C76.7597875,19.7254803 74.4604204,19.1478485 74.4604204,17.4970229 C74.4604204,16.2592965 75.4458076,15.5163464 77.2524811,15.5163464 C79.0591545,15.5163464 80.701727,16.2592965 82.5084004,17.5798784 L85.7931546,13.2054263 C83.739939,11.6374562 80.9478784,9.98663063 77.1704306,9.98663063 C71.5859186,9.98663063 67.8084707,13.2054263 67.8084707,17.7448038 C67.8084707,21.7890123 71.3397671,23.8521515 74.2959287,25.0078079 C76.8418379,25.9981462 79.3053059,26.823559 79.3053059,28.4739918 C79.3053059,29.712111 78.3199187,30.5375237 76.1026022,30.5375237 C74.0497773,30.5375237 71.9965617,29.712111 69.7796359,27.9788227 L66.4944909,32.7659812 C68.9583496,34.8291204 72.7357975,36.232165 75.8564507,36.232165 C82.4259592,36.232165 85.9572556,32.7659812 85.9572556,28.2266036 C85.9572556,23.687226 82.4259592,21.7890123 79.2232555,20.7158186 M30.4434633,20.3031122 C30.9361569,17.0018538 32.9069313,15.4338837 35.2062984,15.4338837 C38.1628507,15.4338837 39.3127295,17.4970229 39.3127295,20.3031122 L30.4434633,20.3031122 L30.4434633,20.3031122 Z M45.5536454,21.7890123 C45.6356959,15.10364 42.022349,9.90416788 35.1242479,9.90416788 C29.1294835,9.90416788 23.3812612,14.9387146 23.5453622,22.8618133 C23.5453622,31.0326929 28.883332,35.8194586 35.9455341,35.8194586 C38.9020864,35.8194586 42.1868407,34.7466577 44.7323591,33.0133694 L42.2688911,28.63931 C40.4622177,29.712111 38.7375947,30.2072801 36.9309213,30.2072801 C33.6461671,30.2072801 31.1002579,28.63931 30.4434633,24.8424898 L45.3074939,24.8424898 C45.3895444,24.2648579 45.5536454,23.1095942 45.5536454,21.7890123 L45.5536454,21.7890123 Z" id="Shape" fill="#FAF9F8" fill-rule="nonzero" mask="url(#mask-3)"></path>
                    </g>
                    <g id="Clipped">
                        <mask id="mask-5" fill="white">
                            <use xlink:href="#path-4"></use>
                        </mask>
                        <g id="c"></g>
                        <path d="M23.1347191,30.0423546 C22.559975,30.0423546 21.8207392,29.5471855 21.8207392,27.9788227 L21.8207392,0 L10.1594124,0 C5.72516996,0 3.75400484,1.73328828 3.75400484,7.09807861 C3.75400484,10.6467252 4.24669844,12.6277944 4.24669844,15.6812719 C4.24669844,17.4145602 3.17926076,19.2303112 -0.0234429945,19.3952367 L-0.0234429945,23.687226 C3.17926076,23.7696888 4.24669844,25.5854398 4.24669844,27.3187281 C4.24669844,30.3725983 3.75400484,32.1879566 3.75400484,35.7369959 C3.75400484,41.1017862 5.72516996,42.8350745 10.0773619,42.8350745 L13.2800656,42.8350745 L13.2800656,39.0382543 L12.2946784,39.0382543 C10.2418536,39.0382543 9.58466828,38.2132342 9.58466828,35.4896077 C9.58466828,32.7659812 9.83121044,30.455061 9.83121044,27.4011908 C9.83121044,23.6047633 8.59928108,22.1188632 6.13542236,21.5412314 L6.13542236,21.2938431 C8.59928108,20.7158186 9.83121044,19.2303112 9.83121044,15.4338837 C9.83121044,12.4624763 9.58466828,10.0690934 9.58466828,7.34546683 C9.58466828,4.6218403 10.1594124,3.87928295 12.2946784,3.87928295 L14.511995,3.87928295 L14.511995,27.5661163 C14.511995,32.600663 16.236618,35.9023141 21.2459952,35.9023141 C22.8061264,35.9023141 24.0380558,35.6545332 24.9413925,35.3242895 L24.1201063,29.9598919 C23.6274127,30.0423546 23.3812612,30.0423546 23.1347191,30.0423546" id="Path" fill="#FAF9F8" fill-rule="nonzero" mask="url(#mask-5)"></path>
                    </g>
                </g>
            </g>
        </g>
    </g>
</svg>