<?xml version="1.0" encoding="UTF-8"?>
<svg width="130px" height="130px" viewBox="0 0 130 130" version="1.1" xmlns="http://www.w3.org/2000/svg" xmlns:xlink="http://www.w3.org/1999/xlink">
    <title>logo/typescript</title>
    <g id="Page-1" stroke="none" stroke-width="1" fill="none" fill-rule="evenodd">
        <g id="architecture-design" transform="translate(-505.000000, -623.000000)">
            <g id="logo/typescript" transform="translate(505.000000, 623.000000)">
                <circle id="Oval" fill="#DCDFE6" cx="65" cy="65" r="65"></circle>
                <g id="typescript" transform="translate(30.000000, 30.000000)" fill-rule="nonzero">
                    <polygon id="Path" fill="#007ACC" points="0 0 70 0 70 70 0 70"></polygon>
                    <path d="M15.3475,35.1225 L15.3475,37.975 L24.4475,37.975 L24.4475,63.875 L30.905,63.875 L30.905,37.975 L40.005,37.975 L40.005,35.175 C40.005,33.6 40.005,32.3225 39.935,32.2875 C39.935,32.235 34.3875,32.2175 27.65,32.2175 L15.4,32.27 L15.4,35.14 L15.3475,35.1225 Z M56.245,32.2 C58.03,32.62 59.395,33.425 60.62,34.7025 C61.2675,35.4025 62.23,36.6275 62.3,36.9425 C62.3,37.0475 59.2725,39.095 57.435,40.2325 C57.365,40.285 57.085,39.9875 56.805,39.5325 C55.895,38.2375 54.9675,37.6775 53.515,37.5725 C51.415,37.4325 50.015,38.535 50.015,40.3725 C50.015,40.9325 50.12,41.2475 50.33,41.7025 C50.8025,42.665 51.6775,43.2425 54.39,44.4325 C59.395,46.585 61.565,48.0025 62.8775,50.0325 C64.365,52.3075 64.6975,55.8775 63.7,58.555 C62.58,61.4775 59.85,63.455 55.9475,64.1025 C54.7225,64.3125 51.9225,64.2775 50.61,64.05 C47.81,63.525 45.1325,62.125 43.4875,60.3225 C42.84,59.6225 41.5975,57.75 41.6675,57.6275 L42.3325,57.2075 L44.9575,55.685 L46.935,54.53 L47.39,55.1425 C47.9675,56.0525 49.2625,57.2775 50.015,57.6975 C52.29,58.87 55.335,58.7125 56.84,57.3475 C57.4875,56.7525 57.7675,56.1225 57.7675,55.2475 C57.7675,54.4425 57.645,54.075 57.2425,53.4625 C56.6825,52.6925 55.5625,52.0625 52.4125,50.6625 C48.79,49.1225 47.25,48.1425 45.815,46.6375 C44.9925,45.7275 44.24,44.31 43.89,43.1375 C43.6275,42.1225 43.54,39.6375 43.785,38.64 C44.5375,35.14 47.18,32.69 50.96,31.99 C52.185,31.745 55.0725,31.85 56.28,32.165 L56.245,32.2 L56.245,32.2 Z" id="Shape" fill="#FFFFFF"></path>
                </g>
            </g>
        </g>
    </g>
</svg>